<?xml version="1.0" standalone="no"?>
<!DOCTYPE svg PUBLIC "-//W3C//DTD SVG 20010904//EN"
 "http://www.w3.org/TR/2001/REC-SVG-20010904/DTD/svg10.dtd">
<svg version="1.0" xmlns="http://www.w3.org/2000/svg"
 width="700.000000pt" height="700.000000pt" viewBox="0 0 700.000000 700.000000"
 preserveAspectRatio="xMidYMid meet">
<metadata>
Created by potrace 1.14, written by Peter Selinger 2001-2017
</metadata>
<g transform="translate(0.000000,700.000000) scale(0.100000,-0.100000)"
fill="#000000" stroke="none">
<path d="M2259 4179 c-129 -11 -275 -64 -389 -143 -173 -118 -413 -431 -413
-538 0 -34 6 -47 32 -70 43 -39 77 -36 174 16 99 53 196 87 337 118 93 20 132
22 335 22 199 0 244 -3 332 -22 131 -28 259 -74 349 -123 88 -48 125 -50 165
-10 54 54 35 120 -84 294 -223 327 -509 483 -838 456z"/>
<path d="M4583 4178 c-282 -23 -560 -233 -749 -566 -55 -95 -58 -139 -15 -183
40 -40 77 -38 165 10 90 49 218 95 349 123 88 19 133 22 332 22 203 0 242 -2
335 -22 141 -31 238 -65 337 -118 97 -52 131 -55 174 -16 48 43 44 90 -16 194
-67 115 -116 180 -209 277 -207 214 -429 302 -703 279z"/>
<path d="M1597 2919 c-96 -23 -170 -89 -208 -188 -31 -78 -37 -261 -15 -391
105 -602 668 -1198 1355 -1435 744 -256 1546 -131 2169 337 382 288 660 706
728 1098 22 131 16 313 -15 391 -29 75 -88 141 -149 167 -91 39 -135 38 -397
-11 -633 -120 -1008 -157 -1565 -157 -554 0 -929 37 -1562 156 -244 45 -276
48 -341 33z m311 -434 c130 -32 348 -70 517 -91 895 -109 2015 -70 2689 96 66
16 121 28 123 26 2 -1 -9 -21 -24 -44 -160 -237 -441 -442 -777 -567 -469
-174 -1109 -201 -1636 -71 -357 89 -659 252 -876 472 -55 56 -133 154 -154
193 -12 23 -11 24 11 17 13 -3 71 -18 127 -31z"/>
</g>
</svg>
